<?xml version="1.0" encoding="UTF-8" standalone="no"?>
<!DOCTYPE svg PUBLIC "-//W3C//DTD SVG 1.1//EN" "http://www.w3.org/Graphics/SVG/1.1/DTD/svg11.dtd">
<svg version="1.1" xmlns="http://www.w3.org/2000/svg" xmlns:xlink="http://www.w3.org/1999/xlink" preserveAspectRatio="xMidYMid meet" viewBox="0 0 640 640" width="640" height="640"><defs><path d="M600 320C600 474.54 474.54 600 320 600C165.46 600 40 474.54 40 320C40 165.46 165.46 40 320 40C474.54 40 600 165.46 600 320Z" id="a2vVS05VLx"></path><path d="M640 320C640 496.61 496.61 640 320 640C143.39 640 0 496.61 0 320C0 143.39 143.39 0 320 0C496.61 0 640 143.39 640 320Z" id="c3pStP9t"></path><path d="M320 40L80 180L80 460L320 600L560 460L560 180L320 40Z" id="aeVue0xEU"></path><path d="M439.09 110.28L198.61 110L80 318.64L201.86 527.57L442.33 527.86L560.94 319.21L439.09 110.28Z" id="f4y1I9QC4I"></path><path d="M560 320C560 452.46 452.46 560 320 560C187.54 560 80 452.46 80 320C80 187.54 187.54 80 320 80C452.46 80 560 187.54 560 320Z" id="d5n8iTso6i"></path><path d="M340 40C340 51.04 331.04 60 320 60C308.96 60 300 51.04 300 40C300 28.96 308.96 20 320 20C331.04 20 340 28.96 340 40Z" id="c1S56amgxJ"></path><path d="M580 180C580 191.04 571.04 200 560 200C548.96 200 540 191.04 540 180C540 168.96 548.96 160 560 160C571.04 160 580 168.96 580 180Z" id="a1AGouSrp9"></path><path d="M580 460C580 471.04 571.04 480 560 480C548.96 480 540 471.04 540 460C540 448.96 548.96 440 560 440C571.04 440 580 448.96 580 460Z" id="bg0EDKLB6"></path><path d="M340 600C340 611.04 331.04 620 320 620C308.96 620 300 611.04 300 600C300 588.96 308.96 580 320 580C331.04 580 340 588.96 340 600Z" id="fDku74CVh"></path><path d="M100 460C100 471.04 91.04 480 80 480C68.96 480 60 471.04 60 460C60 448.96 68.96 440 80 440C91.04 440 100 448.96 100 460Z" id="c2BGPLbIKF"></path><path d="M100 180C100 191.04 91.04 200 80 200C68.96 200 60 191.04 60 180C60 168.96 68.96 160 80 160C91.04 160 100 168.96 100 180Z" id="aEIGZhalA"></path><path d="M450 110C450 115.52 445.52 120 440 120C434.48 120 430 115.52 430 110C430 104.48 434.48 100 440 100C445.52 100 450 104.48 450 110Z" id="b1icNbOFJ8"></path><path d="M450 530C450 535.52 445.52 540 440 540C434.48 540 430 535.52 430 530C430 524.48 434.48 520 440 520C445.52 520 450 524.48 450 530Z" id="aGvQ3eQWc"></path><path d="M210 110C210 115.52 205.52 120 200 120C194.48 120 190 115.52 190 110C190 104.48 194.48 100 200 100C205.52 100 210 104.48 210 110Z" id="e35Drs1jFo"></path><path d="M90 320C90 325.52 85.52 330 80 330C74.48 330 70 325.52 70 320C70 314.48 74.48 310 80 310C85.52 310 90 314.48 90 320Z" id="b1RAWUUcWW"></path><path d="M210 530C210 535.52 205.52 540 200 540C194.48 540 190 535.52 190 530C190 524.48 194.48 520 200 520C205.52 520 210 524.48 210 530Z" id="dkJWFAjL"></path><path d="M570 320C570 325.52 565.52 330 560 330C554.48 330 550 325.52 550 320C550 314.48 554.48 310 560 310C565.52 310 570 314.48 570 320Z" id="a1ob7ZnHni"></path><path d="M520 320C520 430.38 430.38 520 320 520C209.62 520 120 430.38 120 320C120 209.62 209.62 120 320 120C430.38 120 520 209.62 520 320Z" id="a4m10G3Sy"></path><path d="M440 320C440 386.23 386.23 440 320 440C253.77 440 200 386.23 200 320C200 253.77 253.77 200 320 200C386.23 200 440 253.77 440 320Z" id="b1eawJe3wF"></path><mask id="maskbrM6KxtLH" x="120" y="120" width="400" height="400" maskUnits="userSpaceOnUse"><rect x="120" y="120" width="400" height="400" fill="white"></rect><use xlink:href="#b1eawJe3wF" opacity="1" fill="black"></use></mask><path d="M400 320C400 364.15 364.15 400 320 400C275.85 400 240 364.15 240 320C240 275.85 275.85 240 320 240C364.15 240 400 275.85 400 320Z" id="e13oPu5av1"></path></defs><g><g><g><use xlink:href="#a2vVS05VLx" opacity="1" fill="#ffffff" fill-opacity="0.25"></use></g><g><use xlink:href="#c3pStP9t" opacity="1" fill="#198bed" fill-opacity="1"></use></g><g><use xlink:href="#aeVue0xEU" opacity="1" fill="#e7eff6" fill-opacity="0.25"></use></g><g><use xlink:href="#f4y1I9QC4I" opacity="1" fill="#ffffff" fill-opacity="0.25"></use></g><g><use xlink:href="#d5n8iTso6i" opacity="1" fill="#ffffff" fill-opacity="0.25"></use></g><g><g><use xlink:href="#c1S56amgxJ" opacity="1" fill="#ffffff" fill-opacity="1"></use></g><g><use xlink:href="#a1AGouSrp9" opacity="1" fill="#ffffff" fill-opacity="1"></use></g><g><use xlink:href="#bg0EDKLB6" opacity="1" fill="#ffffff" fill-opacity="1"></use></g><g><use xlink:href="#fDku74CVh" opacity="1" fill="#ffffff" fill-opacity="1"></use></g><g><use xlink:href="#c2BGPLbIKF" opacity="1" fill="#ffffff" fill-opacity="1"></use></g><g><use xlink:href="#aEIGZhalA" opacity="1" fill="#ffffff" fill-opacity="1"></use></g></g><g><g><use xlink:href="#b1icNbOFJ8" opacity="1" fill="#ffffff" fill-opacity="1"></use></g><g><use xlink:href="#aGvQ3eQWc" opacity="1" fill="#ffffff" fill-opacity="1"></use></g><g><use xlink:href="#e35Drs1jFo" opacity="1" fill="#ffffff" fill-opacity="1"></use></g><g><use xlink:href="#b1RAWUUcWW" opacity="1" fill="#ffffff" fill-opacity="1"></use></g><g><use xlink:href="#dkJWFAjL" opacity="1" fill="#ffffff" fill-opacity="1"></use></g><g><use xlink:href="#a1ob7ZnHni" opacity="1" fill="#ffffff" fill-opacity="1"></use></g></g><g><use xlink:href="#a4m10G3Sy" opacity="1" fill="#188bed" fill-opacity="0.75"></use></g><g><use xlink:href="#b1eawJe3wF" opacity="1" fill="#198bed" fill-opacity="1"></use><g mask="url(#maskbrM6KxtLH)"><use xlink:href="#b1eawJe3wF" opacity="1" fill-opacity="0" stroke="#ffffff" stroke-width="80" stroke-opacity="0.75"></use></g></g><g><use xlink:href="#e13oPu5av1" opacity="1" fill="#ffffff" fill-opacity="1"></use></g></g></g></svg>